<?xml version="1.0" encoding="UTF-8"?>
<svg version="1.1" xmlns="http://www.w3.org/2000/svg" width="180" height="180">
<path d="M0 0 C59.4 0 118.8 0 180 0 C180 59.4 180 118.8 180 180 C120.6 180 61.2 180 0 180 C0 120.6 0 61.2 0 0 Z " fill="#FEFEFE" transform="translate(0,0)"/>
<path d="M0 0 C3.63 0 7.26 0 11 0 C11.33 1.32 11.66 2.64 12 4 C12.33 2.68 12.66 1.36 13 0 C57.88 0 102.76 0 149 0 C149 8.25 149 16.5 149 25 C104.45 25 59.9 25 14 25 C14 23.68 14 22.36 14 21 C13.01 21 12.02 21 11 21 C11 22.32 11 23.64 11 25 C7.37 25 3.74 25 0 25 C0 21.37 0 17.74 0 14 C1.32 14 2.64 14 4 14 C4 13.01 4 12.02 4 11 C2.68 11 1.36 11 0 11 C0 7.37 0 3.74 0 0 Z " fill="#095191" transform="translate(16,123)"/>
<path d="M0 0 C4.62 0 9.24 0 14 0 C14 12.21 14 24.42 14 37 C1.79 37 -10.42 37 -23 37 C-23 32.38 -23 27.76 -23 23 C-15.41 23 -7.82 23 0 23 C0 15.41 0 7.82 0 0 Z " fill="#EC1F26" transform="translate(117,76)"/>
<path d="M0 0 C4.62 0 9.24 0 14 0 C14 7.59 14 15.18 14 23 C21.59 23 29.18 23 37 23 C37 27.62 37 32.24 37 37 C24.79 37 12.58 37 0 37 C0 24.79 0 12.58 0 0 Z " fill="#EC1E25" transform="translate(50,76)"/>
<path d="M0 0 C12.21 0 24.42 0 37 0 C37 12.21 37 24.42 37 37 C32.38 37 27.76 37 23 37 C23 29.41 23 21.82 23 14 C15.41 14 7.82 14 0 14 C0 9.38 0 4.76 0 0 Z " fill="#EC1F25" transform="translate(94,32)"/>
<path d="M0 0 C12.21 0 24.42 0 37 0 C37 4.62 37 9.24 37 14 C29.41 14 21.82 14 14 14 C14 21.59 14 29.18 14 37 C9.38 37 4.76 37 0 37 C0 24.79 0 12.58 0 0 Z " fill="#EC1E25" transform="translate(50,32)"/>
<path d="M0 0 C8.25 0 16.5 0 25 0 C25 8.25 25 16.5 25 25 C16.75 25 8.5 25 0 25 C0 16.75 0 8.5 0 0 Z " fill="#0A4C8A" transform="translate(78,60)"/>
<path d="M0 0 C3.63 0 7.26 0 11 0 C11.33 1.32 11.66 2.64 12 4 C12.33 2.68 12.66 1.36 13 0 C16.96 0 20.92 0 25 0 C25 8.25 25 16.5 25 25 C21.37 25 17.74 25 14 25 C14 23.68 14 22.36 14 21 C13.01 21 12.02 21 11 21 C11 22.32 11 23.64 11 25 C7.37 25 3.74 25 0 25 C0 21.37 0 17.74 0 14 C1.32 14 2.64 14 4 14 C4 13.01 4 12.02 4 11 C2.68 11 1.36 11 0 11 C0 7.37 0 3.74 0 0 Z " fill="#F5DFE2" transform="translate(16,123)"/>
<path d="M0 0 C7.21153846 -0.48076923 7.21153846 -0.48076923 10.5625 1.5625 C12 4 12 4 11.9375 7.625 C11 11 11 11 8 13 C5.95703125 13.1953125 5.95703125 13.1953125 3.8125 13.125 C1.9253125 13.063125 1.9253125 13.063125 0 13 C0 8.71 0 4.42 0 0 Z " fill="#D6E2EC" transform="translate(62,129)"/>
<path d="M0 0 C2.97 0 5.94 0 9 0 C10.60642307 4.0633054 11.44504746 6.78527823 10 11 C6.78548731 12.60725635 3.56387464 12.05748185 0 12 C0 8.04 0 4.08 0 0 Z " fill="#D8E3ED" transform="translate(105,130)"/>
<path d="M0 0 C2.475 0.495 2.475 0.495 5 1 C5.33 1.66 5.66 2.32 6 3 C6.33 2.01 6.66 1.02 7 0 C8.32 0 9.64 0 11 0 C11 3.63 11 7.26 11 11 C9.35 10.67 7.7 10.34 6 10 C5.67 9.34 5.34 8.68 5 8 C4.67 9.32 4.34 10.64 4 12 C2.68 12 1.36 12 0 12 C0 8.04 0 4.08 0 0 Z " fill="#EBF1F6" transform="translate(131,130)"/>
<path d="M0 0 C0.99 0 1.98 0 3 0 C3 1.32 3 2.64 3 4 C4.32 4 5.64 4 7 4 C7 2.68 7 1.36 7 0 C8.32 0 9.64 0 11 0 C11 3.63 11 7.26 11 11 C9.68 11 8.36 11 7 11 C7 9.68 7 8.36 7 7 C6.01 7 5.02 7 4 7 C4 8.65 4 10.3 4 12 C2.68 12 1.36 12 0 12 C0 8.04 0 4.08 0 0 Z " fill="#F1F5F8" transform="translate(49,130)"/>
<path d="M0 0 C0.99 0 1.98 0 3 0 C3 0.99 3 1.98 3 3 C3.66 3 4.32 3 5 3 C5.33 2.01 5.66 1.02 6 0 C7.65 0 9.3 0 11 0 C10.01 1.485 10.01 1.485 9 3 C9.26676204 4.98491642 9.26676204 4.98491642 10 7 C10.33333333 8.33333333 10.66666667 9.66666667 11 11 C8.5625 10.625 8.5625 10.625 6 10 C5.67 9.34 5.34 8.68 5 8 C4.67 9.32 4.34 10.64 4 12 C2.68 12 1.36 12 0 12 C0 8.04 0 4.08 0 0 Z " fill="#EEF3F7" transform="translate(145,130)"/>
<path d="M0 0 C1.65 0 3.3 0 5 0 C5.99 3.63 6.98 7.26 8 11 C5.36 10.67 2.72 10.34 0 10 C0 10.66 0 11.32 0 12 C-1.32 12 -2.64 12 -4 12 C-3.33501617 7.61110675 -1.81242323 4.0188515 0 0 Z " fill="#DEE8F0" transform="translate(121,130)"/>
<path d="M0 0 C1.375 2.0625 1.375 2.0625 2 4 C-0.31 3.67 -2.62 3.34 -5 3 C-5 4.65 -5 6.3 -5 8 C-3.02 7.67 -1.04 7.34 1 7 C0.67 8.32 0.34 9.64 0 11 C-6.37426409 12.32296047 -6.37426409 12.32296047 -8.9375 11 C-10.60216895 7.8665055 -10.43422916 5.47383326 -10 2 C-7.0350563 -1.64916147 -4.2862332 -1.39768474 0 0 Z " fill="#E8EEF4" transform="translate(96,130)"/>
<path d="M0 0 C3.63 0 7.26 0 11 0 C11 3.63 11 7.26 11 11 C9.68 11 8.36 11 7 11 C6.67 9.02 6.34 7.04 6 5 C3.03 4.505 3.03 4.505 0 4 C0 2.68 0 1.36 0 0 Z " fill="#E7262E" transform="translate(30,123)"/>
<path d="M0 0 C1.32 0 2.64 0 4 0 C4 3.63 4 7.26 4 11 C0.37 11 -3.26 11 -7 11 C-7 9.68 -7 8.36 -7 7 C-4.69 7 -2.38 7 0 7 C0 4.69 0 2.38 0 0 Z " fill="#E6212A" transform="translate(37,137)"/>
<path d="M0 0 C1.32 0 2.64 0 4 0 C4 2.31 4 4.62 4 7 C6.31 7 8.62 7 11 7 C11 8.32 11 9.64 11 11 C7.37 11 3.74 11 0 11 C0 7.37 0 3.74 0 0 Z " fill="#ED1D24" transform="translate(16,137)"/>
<path d="M0 0 C3.63 0 7.26 0 11 0 C11 1.32 11 2.64 11 4 C8.69 4 6.38 4 4 4 C4 6.31 4 8.62 4 11 C2.68 11 1.36 11 0 11 C0 7.37 0 3.74 0 0 Z " fill="#ED2128" transform="translate(16,123)"/>
<path d="M0 0 C2.64 0 5.28 0 8 0 C8 0.66 8 1.32 8 2 C6.35 2 4.7 2 3 2 C3 2.99 3 3.98 3 5 C4.32 5 5.64 5 7 5 C7 5.66 7 6.32 7 7 C5.68 7 4.36 7 3 7 C3 8.32 3 9.64 3 11 C2.01 11 1.02 11 0 11 C0 7.37 0 3.74 0 0 Z " fill="#FFFFFF" transform="translate(76,130)"/>
<path d="M0 0 C2.31 0 4.62 0 7 0 C7 2.31 7 4.62 7 7 C4.69 7 2.38 7 0 7 C0 4.69 0 2.38 0 0 Z " fill="#004B8D" transform="translate(25,132)"/>
<path d="M0 0 C2.31 0.66 4.62 1.32 7 2 C7 3.65 7 5.3 7 7 C6.67 6.34 6.34 5.68 6 5 C4.02 5.66 2.04 6.32 0 7 C-1 6 -1 6 -1.125 3.5 C-1 1 -1 1 0 0 Z " fill="#21629C" transform="translate(91,132)"/>
<path d="M0 0 C1.32 0 2.64 0 4 0 C3.67 1.65 3.34 3.3 3 5 C2.01 5 1.02 5 0 5 C0 3.35 0 1.7 0 0 Z " fill="#1F619B" transform="translate(66,133)"/>
</svg>
