<?xml version="1.0" encoding="UTF-8"?>
<svg version="1.1" xmlns="http://www.w3.org/2000/svg" width="1249" height="1250">
<path d="M0 0 C412.17 0 824.34 0 1249 0 C1249 412.5 1249 825 1249 1250 C836.83 1250 424.66 1250 0 1250 C0 837.5 0 425 0 0 Z " fill="#FEFEFE" transform="translate(0,0)"/>
<path d="M0 0 C1.44728313 -0.00373896 2.89456425 -0.00834146 4.34184217 -0.01373065 C8.31044476 -0.02594634 12.27896296 -0.02570185 16.24758005 -0.02334189 C20.53136902 -0.02293335 24.81513108 -0.03397667 29.09890747 -0.04345703 C37.48977291 -0.06006163 45.88061025 -0.06556639 54.27149075 -0.06668179 C61.09566566 -0.06763279 67.91983132 -0.07174574 74.7440033 -0.07808304 C94.10547601 -0.09569625 113.46692656 -0.10492213 132.82840735 -0.10342209 C134.393693 -0.10330222 134.393693 -0.10330222 135.99060059 -0.10317993 C137.03540382 -0.10309817 138.08020705 -0.10301641 139.15667099 -0.10293217 C156.07549706 -0.1021199 172.99423397 -0.12124249 189.91303426 -0.14945666 C207.29857543 -0.17821951 224.68407317 -0.191995 242.06963873 -0.19026911 C251.82476917 -0.18960624 261.57980621 -0.19505287 271.33491516 -0.21662521 C279.64388895 -0.23488209 287.95272704 -0.23914768 296.26171225 -0.22560637 C300.49652141 -0.21909856 304.73107059 -0.21887965 308.96585464 -0.23631287 C312.85240657 -0.25214699 316.73849462 -0.24907592 320.62503594 -0.2317446 C322.02145256 -0.22869718 323.4179047 -0.23222062 324.81427938 -0.24346475 C342.43808447 -0.37583242 357.54376755 4.09169421 370.64587402 16.32992554 C379.7052418 25.89986462 384.80845769 36.17758563 386.89587402 49.26742554 C387.03122559 48.63578491 387.16657715 48.00414429 387.30603027 47.35336304 C391.19346627 31.19838948 399.59353571 17.18974087 413.89587402 8.26742554 C423.14366041 2.95549704 431.36440162 0.96183997 441.94163322 1.01294994 C442.9305015 1.00974347 443.91936977 1.00653699 444.93820375 1.00323334 C448.25405816 0.99492744 451.56973222 1.0008598 454.8855896 1.00672913 C457.28600214 1.00370872 459.68641371 0.9998198 462.08682358 0.99513656 C467.30703484 0.98698548 472.52721027 0.98505997 477.74742508 0.98863983 C485.51019376 0.99394924 493.2729245 0.98784914 501.03568905 0.9795569 C515.70674531 0.96431602 530.37778431 0.96261191 545.04884683 0.96507993 C556.37771158 0.96691253 567.70657068 0.96515367 579.03543472 0.96085548 C580.66299946 0.96025308 582.2905642 0.95965189 583.91812894 0.95905188 C586.37070711 0.95814463 588.82328527 0.95723596 591.27586343 0.95631953 C614.07888742 0.94788985 636.88190928 0.94355442 659.68493462 0.94772625 C660.97440115 0.94796081 660.97440115 0.94796081 662.28991752 0.94820012 C666.64694297 0.9490059 671.00396841 0.94985167 675.36099385 0.95071342 C676.65897414 0.95097005 676.65897414 0.95097005 677.98317625 0.95123187 C679.73306367 0.95157852 681.48295108 0.95192705 683.23283849 0.95227745 C710.46314049 0.95763506 737.6934101 0.94970318 764.92370605 0.9312439 C795.51686554 0.91052924 826.11000496 0.89980014 856.70317185 0.90381938 C859.96500849 0.90421473 863.22684514 0.90457628 866.48868179 0.90491676 C867.29182914 0.9050075 868.09497649 0.90509823 868.92246163 0.90519171 C881.04800568 0.9063578 893.17352947 0.89970853 905.29906845 0.88910484 C919.08865506 0.87705826 932.87819705 0.87548766 946.66778432 0.88789501 C954.38424196 0.89452722 962.10059293 0.89288423 969.81704206 0.8793065 C975.57864027 0.8700979 981.34013579 0.87657053 987.10172369 0.88915429 C989.43273715 0.8918129 991.76376302 0.88939838 994.09476434 0.88141843 C997.2628477 0.87132498 1000.4303716 0.87972411 1003.59843254 0.89269543 C1004.50360467 0.88538608 1005.4087768 0.87807674 1006.34137839 0.87054589 C1020.23573719 0.98847918 1032.47849955 7.12138603 1042.47399902 16.59164429 C1052.81850476 28.02065465 1059.00880043 41.84659689 1059.02730179 57.40703773 C1059.03114293 58.6238053 1059.03498408 59.84057287 1059.03894162 61.09421217 C1059.03816149 62.43601781 1059.03728272 63.77782339 1059.03631592 65.11962891 C1059.03890123 66.55168626 1059.04191485 67.9837429 1059.04531932 69.41579854 C1059.05337316 73.34682641 1059.05517799 77.27783599 1059.05591679 81.20887113 C1059.05777017 85.45034857 1059.06531895 89.69181659 1059.072052 93.93328857 C1059.08562451 103.20616924 1059.0916584 112.47904558 1059.09606266 121.75193453 C1059.09882699 127.54421232 1059.1030647 133.33648844 1059.10756683 139.12876511 C1059.11975824 155.17223061 1059.13005771 171.21569478 1059.13344193 187.25916481 C1059.13366149 188.28566405 1059.13388106 189.3121633 1059.13410728 190.36976858 C1059.13432555 191.39869637 1059.13454383 192.42762416 1059.13476872 193.48773158 C1059.13521219 195.57266212 1059.13565875 197.65759265 1059.1361084 199.74252319 C1059.13632983 200.7767164 1059.13655126 201.81090961 1059.1367794 202.876442 C1059.14072633 219.62921045 1059.15817772 236.38193538 1059.18146792 253.13468702 C1059.20519762 270.34276549 1059.21764452 287.55082212 1059.21880984 304.75891721 C1059.21972571 314.41726069 1059.22545571 324.07554745 1059.24362946 333.73387527 C1059.2590523 341.95912954 1059.26413803 350.18430956 1059.25589135 358.40957554 C1059.25199255 362.60346166 1059.25287671 366.79719837 1059.2669487 370.99106598 C1059.27973387 374.83672037 1059.27844994 378.68211379 1059.26635799 382.52776806 C1059.26349158 384.56458203 1059.27530167 386.60140071 1059.28778005 388.63817847 C1059.19639546 405.72866523 1054.00099429 419.67795877 1042.08337402 432.11898804 C1025.88473831 448.0283624 1009.16524777 448.71689288 987.43223572 448.65510559 C985.04130636 448.65928193 982.65037898 448.66476109 980.25945526 448.6714254 C975.07539056 448.68285062 969.89140841 448.6850232 964.70733833 448.67887497 C956.99829846 448.66975673 949.28934185 448.67783758 941.58030835 448.68916621 C927.80954513 448.70880448 914.03881962 448.71118609 900.26804574 448.70597101 C888.21747542 448.70140974 876.16692001 448.70201815 864.11635017 448.70781136 C862.49846319 448.70856823 860.88057621 448.70932421 859.26268922 448.7100793 C856.82455461 448.71122452 854.38641999 448.7123744 851.94828539 448.71353854 C829.28993416 448.72423893 806.63158788 448.72897338 783.97323513 448.72106838 C783.11961987 448.72077121 782.26600461 448.72047404 781.38652222 448.72016786 C774.45500876 448.71771904 767.52349536 448.71510739 760.59198197 448.71248372 C733.54880587 448.70237896 706.50569186 448.71074292 679.46252441 448.73397827 C649.06377524 448.76005461 618.66506342 448.77289809 588.26630265 448.76579052 C585.02472914 448.76507448 581.78315563 448.76440009 578.54158211 448.76375008 C577.34438629 448.76349536 577.34438629 448.76349536 576.12300469 448.7632355 C564.08056417 448.76093354 552.03815837 448.76890446 539.99572563 448.78204155 C526.30109268 448.79695459 512.60654108 448.79779332 498.91190987 448.77997064 C491.25136269 448.77041107 483.5910053 448.77183547 475.93047081 448.78920533 C470.20713908 448.80093901 464.48399282 448.79170891 458.76068235 448.77438296 C456.44795299 448.7706125 454.13520066 448.7735749 451.8224917 448.78399461 C432.58136126 448.86451199 417.77881249 446.35227517 403.13024902 432.71664429 C395.66825926 424.53715551 387.89587402 412.72358673 387.89587402 401.26742554 C387.23587402 401.26742554 386.57587402 401.26742554 385.89587402 401.26742554 C385.83270996 401.83848022 385.7695459 402.40953491 385.70446777 402.99789429 C383.60679028 416.88672741 375.19081881 428.90401789 364.16149902 437.36508179 C351.30510609 445.91785166 339.00577978 448.57249004 323.77865601 448.53485107 C322.34217151 448.5385912 320.90568905 448.54319417 319.46920979 448.54858172 C315.53514041 448.56078263 311.60115626 448.56055469 307.6670723 448.55819297 C303.41876677 448.55778406 299.17048829 448.56883113 294.92219543 448.57830811 C286.60332457 448.59490379 278.28448204 448.60041703 269.96559601 448.60153286 C263.20055158 448.60248414 256.43551648 448.60659844 249.67047501 448.61293411 C230.47585733 448.63054365 211.28126199 448.63977359 192.08663617 448.63827316 C190.53524602 448.6381533 190.53524602 448.6381533 188.95251465 448.63803101 C187.91698645 448.63794924 186.88145825 448.63786748 185.81455041 448.63778324 C169.04060889 448.63697072 152.26675724 448.6561006 135.49284171 448.68430774 C118.25530528 448.71306492 101.01781264 448.72684643 83.78025162 448.72512019 C74.10844573 448.7244572 64.43673403 448.72990924 54.7649498 448.75147629 C46.52843494 448.76972554 38.29205696 448.77400485 30.05553059 448.76045744 C25.85729235 448.75394626 21.65931641 448.75374315 17.46110344 448.77116394 C13.60918342 448.78698256 9.75773174 448.78394251 5.90582253 448.76659568 C3.87057836 448.76211241 1.83531915 448.77711388 -0.19986737 448.79307497 C-18.11645131 448.66003502 -32.49113199 442.81650233 -45.10412598 430.26742554 C-45.74350098 429.66285522 -46.38287598 429.05828491 -47.04162598 428.43539429 C-50.96162913 424.41914105 -53.50515965 419.92915181 -55.91662598 414.89242554 C-56.20690674 414.29220581 -56.4971875 413.69198608 -56.79626465 413.07357788 C-61.18746219 403.36344676 -61.39759777 393.47125427 -61.37828064 382.96112061 C-61.38274026 381.52845978 -61.38805667 380.09580142 -61.39414936 378.66314662 C-61.40825283 374.74886298 -61.40999412 370.83465904 -61.40955245 366.92035365 C-61.41120745 362.68976517 -61.42428658 358.45920887 -61.43574524 354.2286377 C-61.4585411 344.98878124 -61.46650991 335.74894783 -61.47157168 326.50906706 C-61.4748348 320.73348494 -61.48136094 314.95790945 -61.48857307 309.18233109 C-61.50813139 293.17302605 -61.52454028 277.16372716 -61.52744961 261.15440941 C-61.52763718 260.1310569 -61.52782475 259.10770438 -61.528018 258.05334119 C-61.52838424 255.97901003 -61.52874794 253.90467886 -61.52910911 251.8303477 C-61.52929192 250.80073085 -61.52947474 249.771114 -61.52966309 248.71029663 C-61.52984364 247.67941467 -61.53002418 246.64853271 -61.5302102 245.58641191 C-61.5337507 228.88829441 -61.56076874 212.19030596 -61.59816097 195.4922332 C-61.6362951 178.32468407 -61.65560745 161.1571989 -61.65590912 143.9896065 C-61.65649251 134.36021806 -61.66490835 124.73098363 -61.69390678 115.10163498 C-61.71848896 106.90143832 -61.72565753 98.70145186 -61.71065926 90.50122826 C-61.70351842 86.32292294 -61.70422467 82.14503212 -61.72706985 77.96677399 C-61.74784143 74.13078092 -61.74489299 70.29551621 -61.72419501 66.45952947 C-61.71911354 64.43777617 -61.73833902 62.41600503 -61.75885671 60.39434946 C-61.63126295 46.27737145 -57.67164978 33.59210063 -49.10412598 22.26742554 C-48.55885254 21.54039429 -48.0135791 20.81336304 -47.45178223 20.06430054 C-35.36360105 5.16028422 -18.42005026 -0.04505545 0 0 Z " fill="#FEC10E" transform="translate(132.1041259765625,383.7325744628906)"/>
<path d="M0 0 C1.44728313 -0.00373896 2.89456425 -0.00834146 4.34184217 -0.01373065 C8.31044476 -0.02594634 12.27896296 -0.02570185 16.24758005 -0.02334189 C20.53136902 -0.02293335 24.81513108 -0.03397667 29.09890747 -0.04345703 C37.48977291 -0.06006163 45.88061025 -0.06556639 54.27149075 -0.06668179 C61.09566566 -0.06763279 67.91983132 -0.07174574 74.7440033 -0.07808304 C94.10547601 -0.09569625 113.46692656 -0.10492213 132.82840735 -0.10342209 C134.393693 -0.10330222 134.393693 -0.10330222 135.99060059 -0.10317993 C137.03540382 -0.10309817 138.08020705 -0.10301641 139.15667099 -0.10293217 C156.07549706 -0.1021199 172.99423397 -0.12124249 189.91303426 -0.14945666 C207.29857543 -0.17821951 224.68407317 -0.191995 242.06963873 -0.19026911 C251.82476917 -0.18960624 261.57980621 -0.19505287 271.33491516 -0.21662521 C279.64388895 -0.23488209 287.95272704 -0.23914768 296.26171225 -0.22560637 C300.49652141 -0.21909856 304.73107059 -0.21887965 308.96585464 -0.23631287 C312.85240657 -0.25214699 316.73849462 -0.24907592 320.62503594 -0.2317446 C322.02145256 -0.22869718 323.4179047 -0.23222062 324.81427938 -0.24346475 C342.43808447 -0.37583242 357.54376755 4.09169421 370.64587402 16.32992554 C383.75913893 30.18223283 387.36962217 45.20052414 387.28355408 64.02388 C387.28773685 65.46880634 387.2932195 66.91372939 387.29987389 68.35864645 C387.31422341 72.29286386 387.310117 76.2268699 387.30270708 80.16109836 C387.29795153 84.41818403 387.31050617 88.67522553 387.32072449 92.93229675 C387.33787079 101.25785145 387.33876125 109.58333053 387.33351158 117.90889829 C387.32946117 124.67907089 387.33092376 131.44922123 387.33625984 138.21939278 C387.33700826 139.18496572 387.33775669 140.15053867 387.33852779 141.1453714 C387.34005935 143.10726122 387.3415977 145.06915104 387.34314276 147.03104085 C387.3568525 165.4052707 387.35144065 183.77945791 387.33995754 202.15368677 C387.33002487 218.94348051 387.34296914 235.73316406 387.36689173 252.52294081 C387.39130476 269.78776088 387.40088531 287.05252968 387.39423901 304.31736666 C387.39075193 314.00027043 387.39294514 323.68308947 387.41049004 333.36598015 C387.4252395 341.60787074 387.42581156 349.8496169 387.40841912 358.09150475 C387.39992967 362.29179762 387.39770901 366.49183279 387.41307068 370.69211197 C387.42698929 374.54569113 387.42206371 378.39879354 387.40283144 382.25234563 C387.39733756 384.28833932 387.41128271 386.32435773 387.42618555 388.3603043 C387.28867174 405.72130862 381.55495567 420.19440645 369.60290527 432.75570679 C356.48886716 444.92356611 341.13949981 448.57776425 323.77865601 448.53485107 C322.34217151 448.5385912 320.90568905 448.54319417 319.46920979 448.54858172 C315.53514041 448.56078263 311.60115626 448.56055469 307.6670723 448.55819297 C303.41876677 448.55778406 299.17048829 448.56883113 294.92219543 448.57830811 C286.60332457 448.59490379 278.28448204 448.60041703 269.96559601 448.60153286 C263.20055158 448.60248414 256.43551648 448.60659844 249.67047501 448.61293411 C230.47585733 448.63054365 211.28126199 448.63977359 192.08663617 448.63827316 C190.53524602 448.6381533 190.53524602 448.6381533 188.95251465 448.63803101 C187.91698645 448.63794924 186.88145825 448.63786748 185.81455041 448.63778324 C169.04060889 448.63697072 152.26675724 448.6561006 135.49284171 448.68430774 C118.25530528 448.71306492 101.01781264 448.72684643 83.78025162 448.72512019 C74.10844573 448.7244572 64.43673403 448.72990924 54.7649498 448.75147629 C46.52843494 448.76972554 38.29205696 448.77400485 30.05553059 448.76045744 C25.85729235 448.75394626 21.65931641 448.75374315 17.46110344 448.77116394 C13.60918342 448.78698256 9.75773174 448.78394251 5.90582253 448.76659568 C3.87057836 448.76211241 1.83531915 448.77711388 -0.19986737 448.79307497 C-18.11645131 448.66003502 -32.49113199 442.81650233 -45.10412598 430.26742554 C-45.74350098 429.66285522 -46.38287598 429.05828491 -47.04162598 428.43539429 C-50.96162913 424.41914105 -53.50515965 419.92915181 -55.91662598 414.89242554 C-56.20690674 414.29220581 -56.4971875 413.69198608 -56.79626465 413.07357788 C-61.18746219 403.36344676 -61.39759777 393.47125427 -61.37828064 382.96112061 C-61.38274026 381.52845978 -61.38805667 380.09580142 -61.39414936 378.66314662 C-61.40825283 374.74886298 -61.40999412 370.83465904 -61.40955245 366.92035365 C-61.41120745 362.68976517 -61.42428658 358.45920887 -61.43574524 354.2286377 C-61.4585411 344.98878124 -61.46650991 335.74894783 -61.47157168 326.50906706 C-61.4748348 320.73348494 -61.48136094 314.95790945 -61.48857307 309.18233109 C-61.50813139 293.17302605 -61.52454028 277.16372716 -61.52744961 261.15440941 C-61.52763718 260.1310569 -61.52782475 259.10770438 -61.528018 258.05334119 C-61.52838424 255.97901003 -61.52874794 253.90467886 -61.52910911 251.8303477 C-61.52929192 250.80073085 -61.52947474 249.771114 -61.52966309 248.71029663 C-61.52984364 247.67941467 -61.53002418 246.64853271 -61.5302102 245.58641191 C-61.5337507 228.88829441 -61.56076874 212.19030596 -61.59816097 195.4922332 C-61.6362951 178.32468407 -61.65560745 161.1571989 -61.65590912 143.9896065 C-61.65649251 134.36021806 -61.66490835 124.73098363 -61.69390678 115.10163498 C-61.71848896 106.90143832 -61.72565753 98.70145186 -61.71065926 90.50122826 C-61.70351842 86.32292294 -61.70422467 82.14503212 -61.72706985 77.96677399 C-61.74784143 74.13078092 -61.74489299 70.29551621 -61.72419501 66.45952947 C-61.71911354 64.43777617 -61.73833902 62.41600503 -61.75885671 60.39434946 C-61.63126295 46.27737145 -57.67164978 33.59210063 -49.10412598 22.26742554 C-48.55885254 21.54039429 -48.0135791 20.81336304 -47.45178223 20.06430054 C-35.36360105 5.16028422 -18.42005026 -0.04505545 0 0 Z " fill="#A20C3B" transform="translate(132.1041259765625,383.7325744628906)"/>
<path d="M0 0 C24.09 0 48.18 0 73 0 C81.78249738 18.66280693 86.27654558 31.97530415 86.30496025 52.22021294 C86.30870691 54.37363133 86.32565597 56.52662175 86.34571838 58.6799469 C86.40031865 64.79395429 86.43149546 70.9080234 86.45629883 77.0222168 C86.64340442 123.3661269 86.64340442 123.3661269 109.4375 162.65234375 C124.8587955 176.78069527 148.79035742 184.13191996 169.5 183.3046875 C188.60230832 182.14572645 205.66954744 176.08085836 220 163 C220.97582031 162.21753906 221.95164062 161.43507813 222.95703125 160.62890625 C236.51477163 149.35320405 245.652476 130.25678063 248 113 C248.16674976 109.31593337 248.1848183 105.63323096 248.20532227 101.94580078 C248.21522186 100.84277115 248.22512146 99.73974152 248.23532104 98.60328674 C248.26683953 94.96731696 248.29165534 91.33133412 248.31640625 87.6953125 C248.3369841 85.17039658 248.3579808 82.64548405 248.37937927 80.12057495 C248.4288825 74.16029095 248.47416999 68.19998443 248.51740164 62.23965251 C248.58042046 53.59275972 248.65199775 44.94593701 248.72252655 36.29910278 C248.82042786 24.19943605 248.90935807 12.0997331 249 0 C276.06 0 303.12 0 331 0 C331 109.56 331 219.12 331 332 C303.94 332 276.88 332 249 332 C249 300.98 249 269.96 249 238 C240.42 240.97 231.84 243.94 223 247 C218.07472789 248.28949988 213.34322846 249.47877281 208.375 250.4375 C207.29089844 250.66630859 206.20679688 250.89511719 205.08984375 251.13085938 C190.82145457 254.04671983 176.78917399 255.41023824 162.25 255.375 C161.14480011 255.37567978 161.14480011 255.37567978 160.01727295 255.37637329 C148.66266959 255.35596293 137.90001485 254.45542085 126.89990234 251.49951172 C125.21464162 251.05643238 123.50818097 250.69580735 121.80078125 250.34765625 C88.84915802 243.46962302 53.49787336 218.23198134 34.84765625 190.27246094 C25.36947902 175.16977818 19.36233671 159.22475534 15.8125 141.8125 C15.56185791 140.58358032 15.56185791 140.58358032 15.30615234 139.32983398 C13.25523662 128.79539305 12.89383457 118.58746288 13.04296875 107.8671875 C13.05504668 106.50408821 13.06603415 105.14097888 13.07600403 103.77786255 C13.11811603 98.05335657 13.16490332 92.32907312 13.24682617 86.60498047 C13.49463338 68.70650755 12.82070914 51.57859483 9 34 C8.78511932 33.00471283 8.57023865 32.00942566 8.34884644 30.98397827 C6.40352834 22.05755003 4.42396661 13.55358267 0.78710938 5.14208984 C0 3 0 3 0 0 Z " fill="#FEC10E" transform="translate(130,442)"/>
<path d="M0 0 C12.87 0 25.74 0 39 0 C39.02505615 2.85495117 39.0501123 5.70990234 39.07592773 8.65136719 C39.11167601 12.69987104 39.14762519 16.7483731 39.18359375 20.796875 C39.19312891 21.87208467 39.20266407 22.94729435 39.21248817 24.05508614 C39.32892576 37.14837021 39.45059629 50.24158389 39.58300781 63.3347168 C39.60124383 65.14278132 39.60124383 65.14278132 39.61984825 66.9873724 C39.66900007 71.85742504 39.71816118 76.72747751 39.7678566 81.59752464 C39.90723695 95.3093089 40.02678348 109.02064221 40.08876038 122.73300171 C40.11428873 128.27757339 40.15548409 133.82198229 40.20286846 139.36640739 C40.23792979 143.59343121 40.25286439 147.81985244 40.2519865 152.04701328 C40.25773985 155.22553045 40.29531098 158.40369591 40.328125 161.58203125 C40.32102005 162.66589615 40.3139151 163.74976105 40.30659485 164.86647034 C40.52507829 178.44273832 46.36046907 190.78699472 56.0625 200.1875 C67.43026431 209.82413269 81.41588064 213.19687302 96 212 C109.27329089 209.11450198 122.23697314 201.60465496 129.875 190.12109375 C136.01886156 178.53735477 139.38714034 165.73775322 135.8125 152.8125 C131.58048949 140.47243197 124.72442271 131.80350537 113 126 C109.38246256 124.49548774 105.74040231 123.16514129 102 122 C101.37996094 121.80535156 100.75992187 121.61070312 100.12109375 121.41015625 C87.26793769 118.92473933 75.90250757 122.53655966 64 127 C64 113.47 64 99.94 64 86 C83.71571147 81.36100907 83.71571147 81.36100907 92.8125 81.625 C93.79895508 81.64296631 94.78541016 81.66093262 95.80175781 81.67944336 C121.03789421 82.3159817 143.06929775 92.55464173 161.1796875 110.11328125 C176.67107056 126.59924727 183.37787001 146.72190225 183.3125 169 C183.33666992 170.64742187 183.33666992 170.64742187 183.36132812 172.328125 C183.36568466 179.68196006 182.30039022 186.02657658 180 193 C179.699729 193.93400635 179.39945801 194.8680127 179.09008789 195.83032227 C175.23758954 207.49977601 169.19102452 217.86831013 161 227 C160.18789062 227.90621094 159.37578125 228.81242188 158.5390625 229.74609375 C142.55487795 246.64432991 119.93480102 257.28804282 96.609375 258.12109375 C88.49521093 258.26070993 80.93086818 257.68557961 73 256 C72.09507812 255.84015625 71.19015625 255.6803125 70.2578125 255.515625 C55.33521408 252.45669901 41.57675 244.69389694 30 235 C29.37480469 234.5359375 28.74960937 234.071875 28.10546875 233.59375 C13.13251568 222.09227785 3.96507455 203.27460661 1 185 C-0.21887088 175.61699571 -0.13544006 166.21891506 -0.11352539 156.77856445 C-0.11324283 155.06267804 -0.1134026 153.3467915 -0.1139679 151.63090515 C-0.11425318 147.00359419 -0.10840002 142.37630949 -0.10139394 137.7490046 C-0.09511554 132.90169679 -0.09455306 128.05438828 -0.09336853 123.20707703 C-0.09026839 114.04178526 -0.08207285 104.87650551 -0.07201904 95.71121901 C-0.06081688 85.2710191 -0.05533713 74.83081859 -0.05032361 64.39061415 C-0.03988907 42.92706792 -0.02156006 21.46353814 0 0 Z " fill="#A20D3A" transform="translate(950,441)"/>
<path d="M0 0 C16.12483163 12.92708021 26.82398281 28.40433287 33 48 C33.37769531 49.18722656 33.75539063 50.37445312 34.14453125 51.59765625 C35.59472275 57.6688594 35.32845674 63.92102106 35.3125 70.125 C35.32861328 71.35476563 35.34472656 72.58453125 35.36132812 73.8515625 C35.3675076 85.61728449 33.69054381 96.94053641 28.4375 107.5625 C28.09525391 108.27011475 27.75300781 108.97772949 27.40039062 109.70678711 C23.79831145 116.86020061 19.23055637 122.96669265 14 129 C13.06607422 130.10214844 13.06607422 130.10214844 12.11328125 131.2265625 C-1.11520692 145.63155395 -22.14794439 155.72096984 -41.51904297 157.28393555 C-45.14324982 157.4002773 -48.74922736 157.41566602 -52.375 157.375 C-53.64053711 157.36847412 -54.90607422 157.36194824 -56.20996094 157.35522461 C-78.97106272 157.02893728 -78.97106272 157.02893728 -83 153 C-83.08871273 149.97022196 -83.1151935 146.96332978 -83.09765625 143.93359375 C-83.0962413 143.02497086 -83.09482635 142.11634796 -83.09336853 141.18019104 C-83.08775193 138.26592779 -83.07519665 135.35174019 -83.0625 132.4375 C-83.05748714 130.46679798 -83.05292386 128.49609476 -83.04882812 126.52539062 C-83.03777711 121.68356441 -83.02050138 116.84179505 -83 112 C-82.16855469 112.34933594 -81.33710937 112.69867187 -80.48046875 113.05859375 C-79.39378906 113.51363281 -78.30710937 113.96867188 -77.1875 114.4375 C-75.56908203 115.11619141 -75.56908203 115.11619141 -73.91796875 115.80859375 C-63.56698632 120.03489849 -49.2460756 119.77599288 -38.75 115.9375 C-35.76164171 114.58445559 -35.76164171 114.58445559 -33 113 C-32.08992187 112.49210938 -31.17984375 111.98421875 -30.2421875 111.4609375 C-20.15176674 105.10547845 -15.44560569 96.13338181 -12 85 C-11.67 84.01 -11.34 83.02 -11 82 C-10.42618224 73.51411808 -10.76079363 65.90209617 -14 58 C-14.3403125 57.16855469 -14.680625 56.33710937 -15.03125 55.48046875 C-20.40454881 43.66284197 -29.25875657 35.5089552 -41.2890625 30.6796875 C-55.61055451 26.05672281 -69.50759754 26.67796669 -82.97265625 33.5078125 C-94.71945147 40.45571063 -102.28145097 50.53283596 -106.05099487 63.66001892 C-107.59820472 70.87777785 -107.35713719 78.28019391 -107.41064453 85.62719727 C-107.42982948 87.30338985 -107.4498512 88.97957303 -107.47064209 90.65574646 C-107.52445618 95.18393429 -107.56662779 99.71216321 -107.60664606 104.24049115 C-107.65054168 108.98111685 -107.70523253 113.72161797 -107.75875854 118.46214294 C-107.85837556 127.4290978 -107.94834044 136.39612224 -108.03480327 145.36321253 C-108.13375121 155.57612646 -108.24351173 165.78891534 -108.35416245 176.00170815 C-108.58143871 197.00102758 -108.79376787 218.00046262 -109 239 C-121.54 239 -134.08 239 -147 239 C-147.09050302 215.43336119 -147.16409967 191.86686439 -147.20724869 168.30009556 C-147.22782137 157.35616876 -147.25584011 146.41235809 -147.30175781 135.46850586 C-147.34178834 125.92318146 -147.36747123 116.37794122 -147.37635398 106.83253521 C-147.3815414 101.78433902 -147.39362183 96.73638346 -147.42292023 91.68826485 C-147.45034635 86.92351975 -147.45839086 82.15911128 -147.45243073 77.39429474 C-147.45351893 75.65824228 -147.46130918 73.92217695 -147.4768219 72.18619347 C-147.59925434 57.76089543 -146.25542586 43.03593611 -138.9375 30.25 C-138.55247314 29.55447021 -138.16744629 28.85894043 -137.77075195 28.14233398 C-125.17237036 6.21014244 -104.63338498 -7.34769861 -81 -15 C-79.46859375 -15.51240234 -79.46859375 -15.51240234 -77.90625 -16.03515625 C-51.4353892 -23.52362345 -21.70032219 -16.02894964 0 0 Z " fill="#A20D3A" transform="translate(723,536)"/>
<path d="M0 0 C3.50635188 2.83671777 6.77924953 5.84464547 10 9 C10.62777344 9.59167969 11.25554687 10.18335938 11.90234375 10.79296875 C15.91298861 14.9127468 18.57685593 19.55103804 21.1875 24.625 C21.5086377 25.23931885 21.82977539 25.8536377 22.16064453 26.48657227 C29.56916958 41.60034623 29.53936874 55.95070428 29.390625 72.4296875 C29.38315178 74.87590062 29.37746397 77.32211978 29.37347412 79.76834106 C29.35830303 86.1634413 29.31909541 92.55817011 29.2746582 98.953125 C29.23352059 105.49604266 29.21542381 112.03902115 29.1953125 118.58203125 C29.15259224 131.38820911 29.08231288 144.19401536 29 157 C15.8 157 2.6 157 -11 157 C-11.01458252 154.04812744 -11.02916504 151.09625488 -11.04418945 148.05493164 C-11.09460645 138.28395594 -11.1612142 128.51313841 -11.23571491 118.74231815 C-11.28037458 112.82033216 -11.31964058 106.89841427 -11.34643555 100.97631836 C-11.37251218 95.25737496 -11.41294588 89.53869424 -11.46318626 83.81991386 C-11.47982542 81.64196486 -11.49135802 79.46397045 -11.49761391 77.28596687 C-11.50728695 74.22690652 -11.53538514 71.16851374 -11.56762695 68.10961914 C-11.56619186 67.21625351 -11.56475677 66.32288788 -11.5632782 65.40245056 C-11.70662359 55.73751737 -14.6672387 47.37662305 -21 40 C-29.90212792 31.90715643 -41.88680558 29.23454707 -53.640625 29.61328125 C-64.03370049 30.80969343 -74.23872436 36.05374141 -81.29084778 43.83062744 C-89.87558506 54.72696145 -88.73478144 67.69620569 -88.70703125 80.828125 C-88.72016435 83.03059242 -88.73547348 85.23304784 -88.75285339 87.43548584 C-88.79252726 93.19592711 -88.8028825 98.95605202 -88.80688477 104.71661377 C-88.81624946 110.60934946 -88.85368383 116.50190185 -88.88867188 122.39453125 C-88.95306862 133.92972249 -88.98385733 145.46464021 -89 157 C-102.2 157 -115.4 157 -129 157 C-129.0680789 143.73369206 -129.12298998 130.46750228 -129.15543652 117.20105839 C-129.17101795 111.03932712 -129.19211717 104.87772273 -129.22631836 98.71606445 C-129.2591821 92.7573111 -129.27690941 86.79867892 -129.28463173 80.83984184 C-129.29012714 78.5791375 -129.30085659 76.31843895 -129.31719017 74.05778694 C-129.54995972 40.471357 -129.54995972 40.471357 -122.25 27.5 C-121.90001953 26.84257813 -121.55003906 26.18515625 -121.18945312 25.5078125 C-118.30746332 20.23371904 -115.03922933 15.46204398 -111 11 C-110.43152344 10.34 -109.86304688 9.68 -109.27734375 9 C-81.85884679 -20.80524511 -32.16218422 -22.74509668 0 0 Z " fill="#A20D3A" transform="translate(903,535)"/>
<path d="M0 0 C15.11826094 10.77902824 25.52711782 26.66773998 29.26635742 44.88842773 C31.94596775 64.30026137 28.09888469 82.20705692 16.78198242 98.46264648 C5.8106643 112.58259601 -8.66492054 121.97396491 -26.22192383 125.59545898 C-27.31504883 125.82233398 -28.40817383 126.04920898 -29.53442383 126.28295898 C-50.15821363 128.03073778 -68.06789396 124.36284573 -84.65942383 111.72045898 C-98.0747965 100.10279119 -108.92042624 84.32319494 -110.42456055 66.14672852 C-111.4236059 46.91599432 -108.14820185 28.44623449 -95.13916016 13.56152344 C-92.90836652 11.15549433 -90.58392178 8.87347479 -88.22192383 6.59545898 C-87.58899414 5.9315918 -86.95606445 5.26772461 -86.30395508 4.58374023 C-82.1949733 0.54732326 -77.49531718 -2.05065874 -72.40942383 -4.65454102 C-71.76980713 -4.98421875 -71.13019043 -5.31389648 -70.47119141 -5.65356445 C-47.96086366 -16.63201957 -20.55651464 -13.78303668 0 0 Z " fill="#FEC10E" transform="translate(338.221923828125,488.404541015625)"/>
</svg>
