<svg version="1.1" id="Layer_1" xmlns="http://www.w3.org/2000/svg" xmlns:xlink="http://www.w3.org/1999/xlink" x="0px" y="0px"
	 width="100%" viewBox="0 0 400 400" enable-background="new 0 0 400 400" xml:space="preserve">
<path fill="#333E48" opacity="1.000000" stroke="none" 
	d="
M183.000000,401.000000 
	C122.018906,401.000000 61.537807,401.000000 1.028355,401.000000 
	C1.028355,267.727234 1.028355,134.454468 1.028355,1.090844 
	C134.231049,1.090844 267.462189,1.090844 400.846680,1.090844 
	C400.846680,134.333191 400.846680,267.666565 400.846680,401.000000 
	C328.454529,401.000000 255.977264,401.000000 183.000000,401.000000 
M112.192345,230.452133 
	C108.068161,228.288071 103.990761,226.024979 99.783310,224.037170 
	C98.856926,223.599518 97.469002,224.138733 96.293617,224.228104 
	C96.570953,225.263977 96.606323,226.470352 97.186073,227.293152 
	C97.932961,228.353149 99.095497,229.130173 100.114059,229.987427 
	C127.173386,252.762268 158.404053,265.072266 193.704727,266.511963 
	C225.449554,267.806610 255.148254,260.581207 282.095551,243.350006 
	C284.487061,241.820770 289.041504,240.527618 287.043549,236.571243 
	C285.022278,232.568741 281.412628,235.540665 278.700897,236.584076 
	C222.586807,258.175415 167.330933,255.855026 112.192345,230.452133 
M123.144325,164.499954 
	C123.144348,179.489441 123.268204,194.480637 123.062798,209.467316 
	C123.007088,213.532303 124.105705,215.054733 128.367203,214.982895 
	C132.381287,214.915222 134.555557,214.343430 134.284943,209.555252 
	C133.897293,202.696411 134.186142,195.799332 134.186142,188.141129 
	C136.324631,189.301514 137.578156,190.005905 138.852859,190.669632 
	C152.571548,197.812820 167.385208,191.974075 172.398315,177.344360 
	C175.228806,169.084106 175.282852,160.650085 172.989014,152.276062 
	C169.185638,138.391327 157.161850,132.021454 143.511978,136.700226 
	C140.120056,137.862854 136.977692,139.753525 133.416611,141.454788 
	C133.240356,135.648224 128.985931,136.772797 125.573418,137.078369 
	C121.468613,137.445953 123.304108,140.925781 123.232201,143.017334 
	C122.997688,149.837814 123.144325,156.671402 123.144325,164.499954 
M189.877686,191.864014 
	C199.688263,196.097366 208.333542,192.939697 216.581512,187.449936 
	C218.259827,192.861176 219.039719,193.168060 226.666122,191.475006 
	C226.666122,177.250748 227.095886,162.964783 226.489197,148.722961 
	C226.174484,141.335175 221.368271,136.584045 213.923325,136.169327 
	C206.257736,135.742294 198.411301,136.461685 190.808517,137.694275 
	C185.077606,138.623398 184.528717,140.710159 186.446945,147.088928 
	C187.665543,146.810181 188.897018,146.421295 190.157715,146.258545 
	C195.738785,145.538116 201.315750,144.516113 206.918808,144.325119 
	C211.049988,144.184326 215.040878,145.667862 215.866638,150.544937 
	C216.435928,153.907211 216.347656,157.380829 216.556870,160.864502 
	C210.481216,160.552597 205.052887,159.954285 199.639893,160.070450 
	C191.370056,160.247910 184.536255,165.333939 182.500366,172.217499 
	C180.275681,179.739410 182.623108,186.454453 189.877686,191.864014 
M273.844696,144.204681 
	C269.638580,156.221039 265.432434,168.237396 260.855835,181.312057 
	C259.898071,178.874146 259.354889,177.581619 258.878571,176.264893 
	C254.868835,165.180176 250.609711,154.175461 246.991821,142.963959 
	C245.423904,138.105209 242.978180,136.099670 238.031418,136.965042 
	C236.752426,137.188812 235.425262,137.137314 233.558121,137.244553 
	C234.181808,139.442001 234.543671,141.367889 235.263092,143.149399 
	C241.355606,158.236313 247.556564,173.279602 253.597244,188.387054 
	C254.358566,190.291061 255.212265,192.783585 254.606735,194.505249 
	C251.147247,204.341492 250.257278,208.369049 238.405884,206.989700 
	C237.999374,206.942398 237.547760,207.282669 237.182739,207.417969 
	C236.393082,214.906754 237.179810,215.852707 244.181549,216.011108 
	C253.207108,216.215271 257.876404,212.776642 262.040588,202.343765 
	C270.041199,182.299362 277.913574,162.203705 285.804443,142.115662 
	C286.370605,140.674393 286.654449,139.122253 287.089813,137.548416 
	C276.767212,136.025513 276.767212,136.025513 273.844696,144.204681 
M305.667511,231.987915 
	C305.797058,230.164612 305.872314,228.335464 306.067993,226.519272 
	C306.423706,223.217606 305.214142,221.017334 301.836029,220.300247 
	C290.731659,217.943130 279.990692,218.778046 269.886017,224.259811 
	C268.533234,224.993698 267.618927,226.535950 266.501587,227.703857 
	C266.718506,228.093826 266.935425,228.483780 267.152313,228.873734 
	C268.887848,228.759003 270.621796,228.604538 272.359131,228.536804 
	C278.162476,228.310562 283.977875,227.799454 289.767914,227.999039 
	C295.316345,228.190308 296.911072,230.360580 295.641296,235.827194 
	C294.441711,240.991364 292.598419,246.007324 291.005554,251.078217 
	C290.338348,253.202408 289.587036,255.300186 288.785614,257.671417 
	C295.756683,256.981598 302.555389,246.418747 305.667511,231.987915 
z"/>
<path fill="#F3961D" opacity="1.000000" stroke="none" 
	d="
M112.523987,230.626770 
	C167.330933,255.855026 222.586807,258.175415 278.700897,236.584076 
	C281.412628,235.540665 285.022278,232.568741 287.043549,236.571243 
	C289.041504,240.527618 284.487061,241.820770 282.095551,243.350006 
	C255.148254,260.581207 225.449554,267.806610 193.704727,266.511963 
	C158.404053,265.072266 127.173386,252.762268 100.114059,229.987427 
	C99.095497,229.130173 97.932961,228.353149 97.186073,227.293152 
	C96.606323,226.470352 96.570953,225.263977 96.293617,224.228104 
	C97.469002,224.138733 98.856926,223.599518 99.783310,224.037170 
	C103.990761,226.024979 108.068161,228.288071 112.523987,230.626770 
z"/>
<path fill="#F9F9FA" opacity="1.000000" stroke="none" 
	d="
M123.144325,163.999939 
	C123.144325,156.671402 122.997688,149.837814 123.232201,143.017334 
	C123.304108,140.925781 121.468613,137.445953 125.573418,137.078369 
	C128.985931,136.772797 133.240356,135.648224 133.416611,141.454788 
	C136.977692,139.753525 140.120056,137.862854 143.511978,136.700226 
	C157.161850,132.021454 169.185638,138.391327 172.989014,152.276062 
	C175.282852,160.650085 175.228806,169.084106 172.398315,177.344360 
	C167.385208,191.974075 152.571548,197.812820 138.852859,190.669632 
	C137.578156,190.005905 136.324631,189.301514 134.186142,188.141129 
	C134.186142,195.799332 133.897293,202.696411 134.284943,209.555252 
	C134.555557,214.343430 132.381287,214.915222 128.367203,214.982895 
	C124.105705,215.054733 123.007088,213.532303 123.062798,209.467316 
	C123.268204,194.480637 123.144348,179.489441 123.144325,163.999939 
M155.832428,182.776123 
	C163.587448,177.394302 163.392349,169.261505 163.045517,161.239792 
	C162.379868,145.844391 150.839874,139.534103 137.473236,147.316193 
	C135.890045,148.237930 134.434341,150.735672 134.324783,152.586060 
	C133.942291,159.045792 134.176529,165.542038 134.176544,172.024414 
	C134.176544,180.326141 136.047943,182.850479 144.385757,183.945496 
	C147.858780,184.401566 151.518967,183.432388 155.832428,182.776123 
z"/>
<path fill="#F8F9F9" opacity="1.000000" stroke="none" 
	d="
M189.554352,191.667633 
	C182.623108,186.454453 180.275681,179.739410 182.500366,172.217499 
	C184.536255,165.333939 191.370056,160.247910 199.639893,160.070450 
	C205.052887,159.954285 210.481216,160.552597 216.556870,160.864502 
	C216.347656,157.380829 216.435928,153.907211 215.866638,150.544937 
	C215.040878,145.667862 211.049988,144.184326 206.918808,144.325119 
	C201.315750,144.516113 195.738785,145.538116 190.157715,146.258545 
	C188.897018,146.421295 187.665543,146.810181 186.446945,147.088928 
	C184.528717,140.710159 185.077606,138.623398 190.808517,137.694275 
	C198.411301,136.461685 206.257736,135.742294 213.923325,136.169327 
	C221.368271,136.584045 226.174484,141.335175 226.489197,148.722961 
	C227.095886,162.964783 226.666122,177.250748 226.666122,191.475006 
	C219.039719,193.168060 218.259827,192.861176 216.581512,187.449936 
	C208.333542,192.939697 199.688263,196.097366 189.554352,191.667633 
M215.483383,180.344299 
	C215.803543,177.132538 216.230835,173.924927 216.356094,170.705582 
	C216.382050,170.038345 215.292450,168.734634 214.706757,168.728668 
	C209.017853,168.670761 203.174454,168.063553 197.683609,169.159103 
	C193.141373,170.065399 192.389694,174.724854 193.133163,178.923981 
	C193.861847,183.039612 196.714310,185.691193 200.834412,184.998444 
	C205.593399,184.198288 210.165787,182.288162 215.483383,180.344299 
z"/>
<path fill="#FAFAFA" opacity="1.000000" stroke="none" 
	d="
M273.955688,143.828644 
	C276.767212,136.025513 276.767212,136.025513 287.089813,137.548416 
	C286.654449,139.122253 286.370605,140.674393 285.804443,142.115662 
	C277.913574,162.203705 270.041199,182.299362 262.040588,202.343765 
	C257.876404,212.776642 253.207108,216.215271 244.181549,216.011108 
	C237.179810,215.852707 236.393082,214.906754 237.182739,207.417969 
	C237.547760,207.282669 237.999374,206.942398 238.405884,206.989700 
	C250.257278,208.369049 251.147247,204.341492 254.606735,194.505249 
	C255.212265,192.783585 254.358566,190.291061 253.597244,188.387054 
	C247.556564,173.279602 241.355606,158.236313 235.263092,143.149399 
	C234.543671,141.367889 234.181808,139.442001 233.558121,137.244553 
	C235.425262,137.137314 236.752426,137.188812 238.031418,136.965042 
	C242.978180,136.099670 245.423904,138.105209 246.991821,142.963959 
	C250.609711,154.175461 254.868835,165.180176 258.878571,176.264893 
	C259.354889,177.581619 259.898071,178.874146 260.855835,181.312057 
	C265.432434,168.237396 269.638580,156.221039 273.955688,143.828644 
z"/>
<path fill="#F0941E" opacity="1.000000" stroke="none" 
	d="
M305.548950,232.407501 
	C302.555389,246.418747 295.756683,256.981598 288.785614,257.671417 
	C289.587036,255.300186 290.338348,253.202408 291.005554,251.078217 
	C292.598419,246.007324 294.441711,240.991364 295.641296,235.827194 
	C296.911072,230.360580 295.316345,228.190308 289.767914,227.999039 
	C283.977875,227.799454 278.162476,228.310562 272.359131,228.536804 
	C270.621796,228.604538 268.887848,228.759003 267.152313,228.873734 
	C266.935425,228.483780 266.718506,228.093826 266.501587,227.703857 
	C267.618927,226.535950 268.533234,224.993698 269.886017,224.259811 
	C279.990692,218.778046 290.731659,217.943130 301.836029,220.300247 
	C305.214142,221.017334 306.423706,223.217606 306.067993,226.519272 
	C305.872314,228.335464 305.797058,230.164612 305.548950,232.407501 
z"/>
<path fill="#36414B" opacity="1.000000" stroke="none" 
	d="
M155.463242,182.943710 
	C151.518967,183.432388 147.858780,184.401566 144.385757,183.945496 
	C136.047943,182.850479 134.176544,180.326141 134.176544,172.024414 
	C134.176529,165.542038 133.942291,159.045792 134.324783,152.586060 
	C134.434341,150.735672 135.890045,148.237930 137.473236,147.316193 
	C150.839874,139.534103 162.379868,145.844391 163.045517,161.239792 
	C163.392349,169.261505 163.587448,177.394302 155.463242,182.943710 
z"/>
<path fill="#35404A" opacity="1.000000" stroke="none" 
	d="
M215.151306,180.602142 
	C210.165787,182.288162 205.593399,184.198288 200.834412,184.998444 
	C196.714310,185.691193 193.861847,183.039612 193.133163,178.923981 
	C192.389694,174.724854 193.141373,170.065399 197.683609,169.159103 
	C203.174454,168.063553 209.017853,168.670761 214.706757,168.728668 
	C215.292450,168.734634 216.382050,170.038345 216.356094,170.705582 
	C216.230835,173.924927 215.803543,177.132538 215.151306,180.602142 
z"/>
</svg>