<?xml version="1.0" encoding="UTF-8"?>
<svg version="1.1" xmlns="http://www.w3.org/2000/svg" width="400" height="400">
<path d="M0 0 C132 0 264 0 400 0 C400 132 400 264 400 400 C268 400 136 400 0 400 C0 268 0 136 0 0 Z " fill="#FEFEFE" transform="translate(0,0)"/>
<path d="M0 0 C-1.53643852 3.68069887 -3.78150945 5.98775204 -6.625 8.75 C-7.44226563 9.54921875 -8.25953125 10.3484375 -9.1015625 11.171875 C-9.72804687 11.77515625 -10.35453125 12.3784375 -11 13 C-13.80644242 11.90596312 -16.44745124 10.76732535 -19.125 9.375 C-24.82593926 6.97590625 -30.86779935 6.98743514 -36.71875 8.87890625 C-44.78101374 12.55792118 -49.52704176 17.89643076 -53 26 C-54.26364097 34.88760814 -53.35848233 42.67584324 -48 50 C-43.35478942 55.18535135 -38.6851994 57.62845586 -31.66796875 58.3359375 C-22.97683044 58.43348114 -16.05514624 57.94843186 -9.625 51.6875 C-7.54943153 48.39493225 -7.54943153 48.39493225 -5 42 C-12.59 42 -20.18 42 -28 42 C-28 36.39 -28 30.78 -28 25 C-14.47 25 -0.94 25 13 25 C13 40.98416302 12.64420683 53.68393033 2.0625 65.625 C-7.54403519 74.68138119 -19.61126364 77.39839498 -32.40234375 77.27734375 C-43.2644525 76.43998249 -53.8550546 70.633042 -61.3125 62.8125 C-69.41042795 53.11134591 -72.80984902 41.47512114 -72 29 C-70.68374869 16.76442443 -65.01373796 7.2721013 -56 -1 C-37.85635993 -14.22518342 -17.73355884 -12.30560642 0 0 Z " fill="#38A956" transform="translate(139,166)"/>
<path d="M0 0 C35.25925926 0 35.25925926 0 44 7.375 C48.99329098 13.05082715 50.59539268 17.7140081 50.33984375 25.2578125 C49.4283696 32.61246601 45.58694936 36.86205124 40.09765625 41.5546875 C35.99469502 44.38168127 32.42906738 45.2506041 27.48046875 45.1953125 C26.55903076 45.19031738 25.63759277 45.18532227 24.68823242 45.18017578 C23.53299072 45.16196777 22.37774902 45.14375977 21.1875 45.125 C17.495625 45.08375 13.80375 45.0425 10 45 C10 55.23 10 65.46 10 76 C6.7 76 3.4 76 0 76 C0 50.92 0 25.84 0 0 Z " fill="#434649" transform="translate(181,161)"/>
<path d="M0 0 C4.87160761 2.86136021 8.46976952 6.4706857 9.92138672 12.0300293 C10.50868508 15.79436523 10.49839592 19.50238416 10.47265625 23.30078125 C10.4712413 24.09276413 10.46982635 24.88474701 10.46836853 25.70072937 C10.46279457 28.21719219 10.45024693 30.73356431 10.4375 33.25 C10.43248163 34.96158725 10.42791931 36.67317591 10.42382812 38.38476562 C10.41283368 42.56904508 10.39558707 46.75325719 10.375 50.9375 C7.405 50.9375 4.435 50.9375 1.375 50.9375 C0.88 47.9675 0.88 47.9675 0.375 44.9375 C-0.08390625 45.34742188 -0.5428125 45.75734375 -1.015625 46.1796875 C-1.62921875 46.71851563 -2.2428125 47.25734375 -2.875 47.8125 C-3.47828125 48.34617188 -4.0815625 48.87984375 -4.703125 49.4296875 C-10.01557098 53.59758211 -15.05242553 53.67384652 -21.625 52.9375 C-28.50620417 50.82635113 -31.71803276 46.79795085 -35.625 40.9375 C-36.33017642 35.71427463 -36.27340521 31.25832543 -33.9375 26.5 C-29.18729501 21.23625933 -25.03232697 18.17710521 -17.84765625 17.671875 C-16.46093772 17.66660731 -15.07414246 17.67204994 -13.6875 17.6875 C-12.99720703 17.67976563 -12.30691406 17.67203125 -11.59570312 17.6640625 C-7.23079982 17.6806119 -3.67984502 18.33840619 0.375 19.9375 C-0.39390022 15.74349879 -0.93529478 12.85710695 -3.5 9.4375 C-8.43097552 7.07063175 -13.26511465 7.04053959 -18.625 7.9375 C-20.54706932 9.05819869 -20.54706932 9.05819869 -22 10.5625 C-22.86625 11.34625 -23.7325 12.13 -24.625 12.9375 C-28.36196902 12.27803488 -30.47119006 11.04003996 -33.625 8.9375 C-31.82863445 4.08731302 -27.91390059 1.07797651 -23.375 -1.18359375 C-16.0544891 -3.52324567 -6.98823134 -3.19462004 0 0 Z " fill="#414548" transform="translate(269.625,186.0625)"/>
<path d="M0 0 C-1.53643852 3.68069887 -3.78150945 5.98775204 -6.625 8.75 C-7.44226563 9.54921875 -8.25953125 10.3484375 -9.1015625 11.171875 C-9.72804687 11.77515625 -10.35453125 12.3784375 -11 13 C-13.80644242 11.90596312 -16.44745124 10.76732535 -19.125 9.375 C-24.82593926 6.97590625 -30.86779935 6.98743514 -36.71875 8.87890625 C-44.65137277 12.49876272 -49.75238644 17.89550766 -53 26 C-52.95218831 27.92242821 -52.89825849 29.84827852 -52.70410156 31.76147461 C-52.19412268 36.88627434 -52.02611504 40.72467445 -55.296875 45.0078125 C-59.22548159 48.24007876 -62.88606023 51.13550066 -68 52 C-72.72953811 39.9016726 -73.66099067 28.82929849 -69.0703125 16.50390625 C-63.71161876 4.65934527 -54.72755155 -3.4063023 -42.8125 -8.3125 C-26.20853613 -12.37124672 -13.82971822 -9.59666759 0 0 Z " fill="#EA4537" transform="translate(139,166)"/>
<path d="M0 0 C3.63 0 7.26 0 11 0 C15.95 11.88 20.9 23.76 26 36 C29.98817969 27.27635646 29.98817969 27.27635646 33.67578125 18.45703125 C34.11083984 17.36455078 34.54589844 16.27207031 34.99414062 15.14648438 C35.42919922 14.04626953 35.86425781 12.94605469 36.3125 11.8125 C36.76689453 10.66974609 37.22128906 9.52699219 37.68945312 8.34960938 C38.79536856 5.56735895 39.89802868 2.78381493 41 0 C44.63 0 48.26 0 52 0 C50.4329429 5.0279321 48.42407616 9.76640725 46.2890625 14.5703125 C45.92435852 15.39716049 45.55965454 16.22400848 45.18389893 17.07591248 C44.40347006 18.84488938 43.62190235 20.61336422 42.83929443 22.38137817 C40.79844526 26.99254839 38.76630338 31.60754958 36.734375 36.22265625 C36.12799698 37.59939766 36.12799698 37.59939766 35.5093689 39.00395203 C30.24779971 50.96327963 25.11074635 62.97552407 20 75 C16.7 75 13.4 75 10 75 C11.31381135 70.59486784 12.74536427 66.42595608 14.79296875 62.30859375 C15.11322021 61.66027588 15.43347168 61.01195801 15.76342773 60.34399414 C16.41036944 59.05283234 17.07222345 57.76901229 17.75024414 56.49389648 C20.10045966 51.78786229 20.08527623 49.07489044 19 44 C17.91152468 40.99452919 16.59948727 38.11288956 15.25390625 35.21484375 C14.88273178 34.39552872 14.51155731 33.57621368 14.12913513 32.73207092 C12.94866537 30.12995449 11.75624413 27.5335499 10.5625 24.9375 C9.37444091 22.33697869 8.18897948 19.73531531 7.00657654 17.13221741 C6.27242773 15.51774169 5.53470339 13.90488554 4.79286194 12.29393005 C2.94667597 8.25205154 1.31106706 4.25600337 0 0 Z " fill="#424649" transform="translate(281,185)"/>
<path d="M0 0 C13.53 0 27.06 0 41 0 C41 28.13513514 41 28.13513514 30.6875 39.5625 C30.130625 40.036875 29.57375 40.51125 29 41 C25.41486894 39.37815499 22.41007677 37.20743761 19.25 34.875 C18.26515625 34.15054688 17.2803125 33.42609375 16.265625 32.6796875 C15.51796875 32.12539062 14.7703125 31.57109375 14 31 C14.59748047 30.36384766 14.59748047 30.36384766 15.20703125 29.71484375 C15.73683594 29.12832031 16.26664063 28.54179687 16.8125 27.9375 C17.33457031 27.36902344 17.85664063 26.80054688 18.39453125 26.21484375 C20.5653506 23.3913569 20.5653506 23.3913569 23 17 C15.41 17 7.82 17 0 17 C0 11.39 0 5.78 0 0 Z " fill="#4486F3" transform="translate(111,191)"/>
<path d="M0 0 C3.17625 -0.061875 6.3525 -0.12375 9.625 -0.1875 C11.1092749 -0.22846802 11.1092749 -0.22846802 12.62353516 -0.27026367 C17.84440218 -0.31933792 21.51016013 0.02548109 26 3 C29.42872169 6.87986928 30.66819797 9.96663654 30.38671875 15.04296875 C29.55799358 19.23682034 27.2267203 21.96799721 24.03125 24.65625 C19.46180737 26.68187921 15.11889089 26.31567155 10.1875 26.1875 C6.825625 26.125625 3.46375 26.06375 0 26 C0 17.42 0 8.84 0 0 Z " fill="#FCFCFC" transform="translate(191,171)"/>
<path d="M0 0 C2.41175449 1.25612213 4.68919326 2.57464257 7 4 C7.74121094 4.40476563 8.48242188 4.80953125 9.24609375 5.2265625 C12.35005573 7.29587049 14.47043084 9.14798442 15.52539062 12.83740234 C16.41590979 17.91026619 16.5815114 23.05396049 15 28 C11.20519522 32.97949342 6.30381246 36.91934643 0 38 C-4.86565091 25.55349121 -5.43318855 14.53663486 -0.875 1.875 C-0.441875 0.946875 -0.441875 0.946875 0 0 Z " fill="#FABB08" transform="translate(71,180)"/>
<path d="M0 0 C1.4540625 0.7425 1.4540625 0.7425 2.9375 1.5 C3.29149338 5.21693054 3.06189143 7.25121713 1.375 10.625 C-2.00431167 14.61085479 -5.20052213 17.01891281 -10.33984375 17.8828125 C-14.42822085 18.08689122 -16.5290461 17.83340869 -20.0625 15.625 C-22.36962507 13.17367962 -22.96207322 12.0523473 -23.5625 8.75 C-22.90573539 4.48103006 -21.15807107 3.3121857 -17.88671875 0.69921875 C-12.5957262 -2.77901404 -5.65428162 -2.44135989 0 0 Z " fill="#FAFAFA" transform="translate(267.0625,212.5)"/>
</svg>
